<mxfile host="app.diagrams.net" agent="Mozilla/5.0 (Windows NT 10.0; Win64; x64) AppleWebKit/537.36 (KHTML, like Gecko) Chrome/140.0.0.0 Safari/537.36" version="28.2.3">
  <diagram name="Page-1" id="08fei1Uq37zzjOM9hv0a">
    <mxGraphModel dx="1042" dy="596" grid="1" gridSize="10" guides="1" tooltips="1" connect="1" arrows="1" fold="1" page="1" pageScale="1" pageWidth="827" pageHeight="1169" math="0" shadow="0">
      <root>
        <mxCell id="0" />
        <mxCell id="1" parent="0" />
        <mxCell id="ffpaRrCQbCC6NSNLZ6IJ-3" value="" style="edgeStyle=orthogonalEdgeStyle;rounded=0;orthogonalLoop=1;jettySize=auto;html=1;" edge="1" parent="1" source="ffpaRrCQbCC6NSNLZ6IJ-1" target="ffpaRrCQbCC6NSNLZ6IJ-2">
          <mxGeometry relative="1" as="geometry" />
        </mxCell>
        <mxCell id="ffpaRrCQbCC6NSNLZ6IJ-1" value="start" style="ellipse;whiteSpace=wrap;html=1;" vertex="1" parent="1">
          <mxGeometry x="340" y="70" width="120" height="80" as="geometry" />
        </mxCell>
        <mxCell id="ffpaRrCQbCC6NSNLZ6IJ-6" value="" style="edgeStyle=orthogonalEdgeStyle;rounded=0;orthogonalLoop=1;jettySize=auto;html=1;" edge="1" parent="1" source="ffpaRrCQbCC6NSNLZ6IJ-2" target="ffpaRrCQbCC6NSNLZ6IJ-5">
          <mxGeometry relative="1" as="geometry" />
        </mxCell>
        <mxCell id="ffpaRrCQbCC6NSNLZ6IJ-2" value="nhập N" style="shape=parallelogram;perimeter=parallelogramPerimeter;whiteSpace=wrap;html=1;fixedSize=1;" vertex="1" parent="1">
          <mxGeometry x="340" y="190" width="120" height="60" as="geometry" />
        </mxCell>
        <mxCell id="ffpaRrCQbCC6NSNLZ6IJ-9" value="Yes" style="edgeStyle=orthogonalEdgeStyle;rounded=0;orthogonalLoop=1;jettySize=auto;html=1;" edge="1" parent="1" source="ffpaRrCQbCC6NSNLZ6IJ-5" target="ffpaRrCQbCC6NSNLZ6IJ-7">
          <mxGeometry relative="1" as="geometry" />
        </mxCell>
        <mxCell id="ffpaRrCQbCC6NSNLZ6IJ-10" value="No" style="edgeStyle=orthogonalEdgeStyle;rounded=0;orthogonalLoop=1;jettySize=auto;html=1;" edge="1" parent="1" source="ffpaRrCQbCC6NSNLZ6IJ-5" target="ffpaRrCQbCC6NSNLZ6IJ-8">
          <mxGeometry relative="1" as="geometry" />
        </mxCell>
        <mxCell id="ffpaRrCQbCC6NSNLZ6IJ-5" value="N%2" style="rhombus;whiteSpace=wrap;html=1;" vertex="1" parent="1">
          <mxGeometry x="360" y="290" width="80" height="80" as="geometry" />
        </mxCell>
        <mxCell id="ffpaRrCQbCC6NSNLZ6IJ-13" style="edgeStyle=orthogonalEdgeStyle;rounded=0;orthogonalLoop=1;jettySize=auto;html=1;entryX=1;entryY=0.5;entryDx=0;entryDy=0;" edge="1" parent="1" source="ffpaRrCQbCC6NSNLZ6IJ-7" target="ffpaRrCQbCC6NSNLZ6IJ-11">
          <mxGeometry relative="1" as="geometry">
            <Array as="points">
              <mxPoint x="570" y="470" />
            </Array>
          </mxGeometry>
        </mxCell>
        <mxCell id="ffpaRrCQbCC6NSNLZ6IJ-7" value="số chẵn" style="rounded=0;whiteSpace=wrap;html=1;" vertex="1" parent="1">
          <mxGeometry x="510" y="300" width="120" height="60" as="geometry" />
        </mxCell>
        <mxCell id="ffpaRrCQbCC6NSNLZ6IJ-12" style="edgeStyle=orthogonalEdgeStyle;rounded=0;orthogonalLoop=1;jettySize=auto;html=1;entryX=0;entryY=0.5;entryDx=0;entryDy=0;" edge="1" parent="1" source="ffpaRrCQbCC6NSNLZ6IJ-8" target="ffpaRrCQbCC6NSNLZ6IJ-11">
          <mxGeometry relative="1" as="geometry">
            <Array as="points">
              <mxPoint x="260" y="470" />
            </Array>
          </mxGeometry>
        </mxCell>
        <mxCell id="ffpaRrCQbCC6NSNLZ6IJ-8" value="số lẻ" style="rounded=0;whiteSpace=wrap;html=1;" vertex="1" parent="1">
          <mxGeometry x="190" y="300" width="120" height="60" as="geometry" />
        </mxCell>
        <mxCell id="ffpaRrCQbCC6NSNLZ6IJ-11" value="end" style="ellipse;whiteSpace=wrap;html=1;" vertex="1" parent="1">
          <mxGeometry x="340" y="430" width="120" height="80" as="geometry" />
        </mxCell>
      </root>
    </mxGraphModel>
  </diagram>
</mxfile>
